<svg width="1440" height="721" viewBox="0 0 1440 721" fill="none" xmlns="http://www.w3.org/2000/svg">
<rect width="1440" height="721" transform="matrix(1 0 0 -1 0 721)" fill="#EDFBFF"/>
<rect x="974.87" y="547" width="38" height="38" rx="3" transform="rotate(45 974.87 547)" fill="url(#paint0_linear_0_220)"/>
<rect x="516.021" y="337.521" width="17" height="17" rx="1" transform="rotate(45 516.021 337.521)" fill="url(#paint1_linear_0_220)"/>
<path opacity="0.543387" fill-rule="evenodd" clip-rule="evenodd" d="M1334.59 271.954C1335.96 271.046 1337.78 272.098 1337.68 273.743L1336.04 301.117C1335.95 302.601 1334.33 303.472 1333.04 302.729L1311.8 290.465C1310.51 289.721 1310.46 287.883 1311.7 287.064L1334.59 271.954Z" stroke="url(#paint2_linear_0_220)" stroke-width="10"/>
<path opacity="0.543387" fill-rule="evenodd" clip-rule="evenodd" d="M845.105 152.76C848.543 150.49 853.097 153.119 852.851 157.232L850.384 198.324C850.161 202.034 846.112 204.213 842.893 202.354L811.006 183.944C807.787 182.086 807.65 177.49 810.751 175.442L845.105 152.76Z" stroke="url(#paint3_linear_0_220)" stroke-width="10"/>
<path fill-rule="evenodd" clip-rule="evenodd" d="M0 408C0 408 58.4276 269.065 170.692 308.008C282.957 346.951 322.832 399.614 383.281 308.008C398.954 284.257 393.147 233.497 354.003 231.482C314.859 229.466 344.752 185.166 412.147 176.475C479.542 167.784 394.051 106.413 342.752 88.5773C289.477 70.0547 357.911 21.2951 363.196 2.67356C376.066 -42.6736 0 2.67356 0 2.67356V408Z" fill="url(#paint4_linear_0_220)"/>
<path fill-rule="evenodd" clip-rule="evenodd" d="M1440 718C1440 718 1308.75 716.462 1246.45 657.526C1184.14 598.591 1184.65 471.139 1051.81 478.107C918.966 485.075 777.007 456.569 827.409 376.286C877.811 296.002 995.536 305.954 1023.67 175.094C1051.81 44.2347 821.437 202.259 783.387 115.246C768.529 81.2658 803.796 76.685 749.114 38.4564C730.961 25.7653 722.183 7.3759 725.802 0.227893C727.546 -3.21675 733.726 1.80642 740.171 0.227893C760.638 -4.78487 803.933 0.227893 847.813 0.227893C989.527 0.227893 1440 0.227893 1440 0.227893V718Z" fill="url(#paint5_linear_0_220)"/>
<defs>
<linearGradient id="paint0_linear_0_220" x1="1041.97" y1="579.524" x2="1008.9" y2="549.464" gradientUnits="userSpaceOnUse">
<stop stop-color="white" stop-opacity="0.01"/>
<stop offset="1" stop-color="#C9F0FF"/>
</linearGradient>
<linearGradient id="paint1_linear_0_220" x1="463.597" y1="322.13" x2="509.131" y2="372.307" gradientUnits="userSpaceOnUse">
<stop stop-color="white" stop-opacity="0.01"/>
<stop offset="1" stop-color="#DEF5FE"/>
</linearGradient>
<linearGradient id="paint2_linear_0_220" x1="1185.56" y1="376.843" x2="1341.15" y2="363.436" gradientUnits="userSpaceOnUse">
<stop stop-color="white" stop-opacity="0.01"/>
<stop offset="1" stop-color="#C9F0FF"/>
</linearGradient>
<linearGradient id="paint3_linear_0_220" x1="747.648" y1="226.729" x2="848.46" y2="224.825" gradientUnits="userSpaceOnUse">
<stop stop-color="white" stop-opacity="0.01"/>
<stop offset="1" stop-color="#C9F0FF"/>
</linearGradient>
<linearGradient id="paint4_linear_0_220" x1="-320.118" y1="245.206" x2="271.142" y2="714.094" gradientUnits="userSpaceOnUse">
<stop stop-color="white" stop-opacity="0.01"/>
<stop offset="1" stop-color="#C9F0FF"/>
</linearGradient>
<linearGradient id="paint5_linear_0_220" x1="1280.14" y1="-433.769" x2="418.634" y2="169.616" gradientUnits="userSpaceOnUse">
<stop stop-color="white" stop-opacity="0.01"/>
<stop offset="1" stop-color="#C9F0FF"/>
</linearGradient>
</defs>
</svg>
